# Blender 5.1.0
# www.blender.org
mtllib drone.mtl
o Cube
v 0.081930 -0.107474 -0.365293
v 0.055718 -0.055718 -0.390837
v 0.107474 -0.081930 -0.365293
v 0.055718 0.055718 -0.390837
v 0.081930 0.107474 -0.365293
v 0.107474 0.081930 -0.365293
v 0.081930 -0.107474 0.365293
v 0.107474 -0.081930 0.365293
v 0.081930 -0.081930 0.390837
v 0.081930 0.107474 0.365293
v 0.081930 0.081930 0.390837
v 0.107474 0.081930 0.365293
v -0.081930 -0.107474 -0.365293
v -0.107474 -0.081930 -0.365293
v -0.055718 -0.055718 -0.390837
v -0.081930 0.107474 -0.365293
v -0.055718 0.055718 -0.390837
v -0.107474 0.081930 -0.365293
v -0.081930 -0.107474 0.365293
v -0.081930 -0.081930 0.390837
v -0.107474 -0.081930 0.365293
v -0.081930 0.107474 0.365293
v -0.107474 0.081930 0.365293
v -0.081930 0.081930 0.390837
v 0.081930 -0.107474 0.219176
v 0.081930 -0.107474 0.073059
v 0.081930 -0.107474 -0.073059
v 0.081930 -0.107474 -0.219176
v 0.107474 -0.036671 -0.173916
v 0.107474 -0.036671 -0.118318
v 0.107474 -0.036671 0.118318
v 0.107474 -0.036671 0.173916
v 0.081930 0.107474 -0.219176
v 0.081930 0.107474 -0.073059
v 0.081930 0.107474 0.073059
v 0.081930 0.107474 0.219176
v 0.107474 0.036671 0.173916
v 0.107474 0.036671 0.118318
v 0.107474 0.036671 -0.118318
v 0.107474 0.036671 -0.173916
v -0.081930 -0.107474 -0.219176
v -0.081930 -0.107474 -0.073059
v -0.081930 -0.107474 0.073059
v -0.081930 -0.107474 0.219176
v -0.107474 -0.036671 0.173916
v -0.107474 -0.036671 0.118318
v -0.107474 -0.036671 -0.118318
v -0.107474 -0.036671 -0.173916
v -0.081930 0.107474 0.219176
v -0.081930 0.107474 0.073059
v -0.081930 0.107474 -0.073059
v -0.081930 0.107474 -0.219176
v -0.107474 0.036671 -0.173916
v -0.107474 0.036671 -0.118318
v -0.107474 0.036671 0.118318
v -0.107474 0.036671 0.173916
v 0.107474 -0.081930 -0.219176
v 0.107474 -0.081930 -0.073059
v 0.107474 -0.081930 0.073059
v 0.107474 -0.081930 0.219176
v 0.107474 0.081930 0.219176
v 0.107474 0.081930 0.073059
v 0.107474 0.081930 -0.073059
v 0.107474 0.081930 -0.219176
v -0.107474 -0.081930 0.219176
v -0.107474 -0.081930 0.073059
v -0.107474 -0.081930 -0.073059
v -0.107474 -0.081930 -0.219176
v -0.107474 0.081930 -0.219176
v -0.107474 0.081930 -0.073059
v -0.107474 0.081930 0.073059
v -0.107474 0.081930 0.219176
v 0.666750 -0.036671 -0.518007
v 0.666750 -0.036671 -0.498591
v 0.666750 -0.036671 0.498591
v 0.666750 -0.036671 0.518007
v 0.640368 0.036671 0.544389
v 0.640368 0.036671 0.472208
v 0.640367 0.036671 -0.472209
v 0.640367 0.036671 -0.544390
v -0.666750 -0.036671 0.518007
v -0.666750 -0.036671 0.498591
v -0.666750 -0.036671 -0.498591
v -0.666750 -0.036671 -0.518007
v -0.640368 0.036671 -0.544389
v -0.640368 0.036671 -0.472208
v -0.640367 0.036671 0.472209
v -0.640367 0.036671 0.544390
v 0.687595 -0.036671 -0.518007
v 0.687595 -0.036671 -0.498591
v 0.687595 -0.036671 0.498591
v 0.687595 -0.036671 0.518007
v 0.713977 0.036671 0.544389
v 0.713977 0.036671 0.472208
v 0.713977 0.036671 -0.472209
v 0.713977 0.036671 -0.544390
v -0.687595 -0.036671 0.518007
v -0.687595 -0.036671 0.498591
v -0.687595 -0.036671 -0.498591
v -0.687595 -0.036671 -0.518007
v -0.713977 0.036671 -0.544389
v -0.713977 0.036671 -0.472208
v -0.713977 0.036671 0.472209
v -0.713977 0.036671 0.544390
v 0.640368 0.058098 0.544389
v 0.661573 0.079303 0.523184
v 0.661573 0.079303 0.493413
v 0.640368 0.058098 0.472208
v 0.640367 0.058098 -0.472209
v 0.661572 0.079303 -0.493414
v 0.661572 0.079303 -0.523184
v 0.640367 0.058098 -0.544390
v -0.640368 0.058098 -0.544389
v -0.661573 0.079303 -0.523184
v -0.661573 0.079303 -0.493413
v -0.640368 0.058098 -0.472208
v -0.640367 0.058098 0.472209
v -0.661572 0.079303 0.493414
v -0.661572 0.079303 0.523184
v -0.640367 0.058098 0.544390
v 0.692772 0.079303 0.523184
v 0.713977 0.058098 0.544389
v 0.713977 0.058098 0.472208
v 0.692772 0.079303 0.493413
v 0.692772 0.079303 -0.493414
v 0.713977 0.058098 -0.472209
v 0.713977 0.058098 -0.544390
v 0.692772 0.079303 -0.523184
v -0.692772 0.079303 -0.523184
v -0.713977 0.058098 -0.544389
v -0.713977 0.058098 -0.472208
v -0.692772 0.079303 -0.493413
v -0.692772 0.079303 0.493414
v -0.713977 0.058098 0.472209
v -0.713977 0.058098 0.544390
v -0.692772 0.079303 0.523184
v 0.640367 -0.036671 -0.544390
v 0.640367 -0.036671 -0.472209
v 0.640368 -0.036671 0.472208
v 0.640368 -0.036671 0.544389
v -0.640367 -0.036671 0.544390
v -0.640367 -0.036671 0.472209
v -0.640368 -0.036671 -0.472208
v -0.640368 -0.036671 -0.544389
v 0.713977 -0.036671 -0.544390
v 0.713977 -0.036671 -0.472209
v 0.713977 -0.036671 0.472208
v 0.713977 -0.036671 0.544389
v -0.713977 -0.036671 0.544390
v -0.713977 -0.036671 0.472209
v -0.713977 -0.036671 -0.472208
v -0.713977 -0.036671 -0.544389
v 0.666750 -0.161627 -0.518007
v 0.666750 -0.161627 -0.498591
v 0.666750 -0.161627 0.498591
v 0.666750 -0.161627 0.518007
v -0.666750 -0.161627 0.518007
v -0.666750 -0.161627 0.498591
v -0.666750 -0.161627 -0.498591
v -0.666750 -0.161627 -0.518007
v 0.687595 -0.161627 -0.518007
v 0.687595 -0.161627 -0.498591
v 0.687595 -0.161627 0.498591
v 0.687595 -0.161627 0.518007
v -0.687595 -0.161627 0.518007
v -0.687595 -0.161627 0.498591
v -0.687595 -0.161627 -0.498591
v -0.687595 -0.161627 -0.518007
v 0.081930 -0.081930 -0.390837
v 0.081930 0.081930 -0.390837
v -0.081930 0.081930 -0.390837
v -0.081930 -0.081930 -0.390837
v 0.055718 -0.055718 -0.452651
v 0.041788 -0.041788 -0.466582
v 0.041788 0.041788 -0.466582
v 0.055718 0.055718 -0.452651
v -0.055719 0.055718 -0.452651
v -0.041788 0.041788 -0.466582
v -0.041788 -0.041788 -0.466582
v -0.055719 -0.055718 -0.452651
vn 0.5774 -0.5774 -0.5774
vn 0.5774 0.5774 -0.5774
vn 0.5774 -0.5773 0.5774
vn 0.5774 0.5773 0.5774
vn -0.5774 -0.5773 -0.5774
vn -0.5774 0.5773 -0.5774
vn -0.5774 -0.5774 0.5774
vn -0.5774 0.5774 0.5774
vn 0.7071 -0.7071 -0.0000
vn 0.7071 -0.0000 -0.7071
vn 0.7071 0.7071 -0.0000
vn 0.7071 -0.0000 0.7071
vn -0.0000 -0.7071 0.7071
vn -0.0000 0.7071 0.7071
vn -0.7071 -0.0000 0.7071
vn -0.7071 -0.7071 -0.0000
vn -0.7071 0.7071 -0.0000
vn -0.7071 -0.0000 -0.7071
vn -0.0000 -0.7071 -0.7071
vn -0.0000 0.7071 -0.7071
vn -0.0000 -1.0000 -0.0000
vn 1.0000 -0.0000 -0.0000
vn -0.0000 1.0000 -0.0000
vn -0.0000 -0.0000 1.0000
vn -1.0000 -0.0000 -0.0000
vn -0.5532 -0.0000 0.8330
vn -0.5532 -0.0000 -0.8330
vn -0.0000 -0.0000 -1.0000
vn 0.5708 -0.0000 -0.8211
vn -0.5708 -0.0000 -0.8211
vn 0.5532 -0.0000 0.8330
vn 0.5532 -0.0000 -0.8330
vn -0.5708 -0.0000 0.8211
vn 0.5708 -0.0000 0.8211
vt 0.018203 0.098417
vt 0.031018 0.090249
vt 0.031018 0.108292
vt 0.113224 0.090249
vt 0.126039 0.098417
vt 0.113224 0.108292
vt 0.028330 0.777878
vt 0.018203 0.765063
vt 0.036183 0.765063
vt 0.028330 0.670042
vt 0.036183 0.682857
vt 0.018203 0.682857
vt 0.162446 0.501885
vt 0.175261 0.492011
vt 0.175261 0.510053
vt 0.270282 0.501885
vt 0.257467 0.510053
vt 0.257467 0.492011
vt 0.859567 0.843375
vt 0.851714 0.830560
vt 0.869693 0.830560
vt 0.859567 0.735540
vt 0.869693 0.748355
vt 0.851714 0.748355
vt 0.319503 0.324236
vt 0.319503 0.397540
vt 0.306688 0.397540
vt 0.306688 0.324236
vt 0.545952 0.104323
vt 0.545952 0.031018
vt 0.558767 0.031018
vt 0.558767 0.104323
vt 0.401709 0.031018
vt 0.319503 0.031018
vt 0.319503 0.018203
vt 0.401709 0.018203
vt 0.463746 0.031018
vt 0.463746 0.018203
vt 0.545952 0.018203
vt 0.401709 0.104323
vt 0.414524 0.031018
vt 0.414524 0.104323
vt 0.463746 0.324236
vt 0.463746 0.397540
vt 0.450931 0.397540
vt 0.450931 0.324236
vt 0.401709 0.397540
vt 0.401709 0.410355
vt 0.319503 0.410355
vt 0.545952 0.397540
vt 0.545952 0.410355
vt 0.463746 0.410355
vt 0.401709 0.324236
vt 0.031018 0.295191
vt 0.113224 0.295191
vt 0.113224 0.341916
vt 0.031018 0.341916
vt 0.545952 0.324236
vt 0.101144 0.682857
vt 0.101144 0.765063
vt 0.175261 0.445286
vt 0.257467 0.445286
vt 0.175261 0.258386
vt 0.257467 0.258386
vt 0.257467 0.305111
vt 0.175261 0.305111
vt 0.235647 0.562382
vt 0.258549 0.546460
vt 0.265379 0.867312
vt 0.235647 0.887982
vt 0.175261 0.351836
vt 0.257467 0.351836
vt 0.257467 0.398561
vt 0.175261 0.398561
vt 0.888507 0.699133
vt 0.851714 0.699133
vt 0.851714 0.379073
vt 0.888507 0.379073
vt 0.463746 0.104323
vt 0.545952 0.177627
vt 0.463746 0.177627
vt 0.545952 0.250931
vt 0.463746 0.250931
vt 0.113224 0.155016
vt 0.031018 0.155016
vt 0.412424 0.789051
vt 0.390639 0.771633
vt 0.412424 0.446762
vt 0.440707 0.469375
vt 0.031018 0.201741
vt 0.113224 0.201741
vt 0.113224 0.248466
vt 0.031018 0.248466
vt 0.234761 0.337363
vt 0.197967 0.337363
vt 0.197967 0.018203
vt 0.234761 0.018203
vt 0.319503 0.104323
vt 0.401709 0.177627
vt 0.319503 0.177627
vt 0.401709 0.250931
vt 0.319503 0.250931
vt 0.450931 0.104323
vt 0.450931 0.031018
vt 0.450931 0.177627
vt 0.450931 0.250931
vt 0.414524 0.324236
vt 0.414524 0.397540
vt 0.414524 0.250931
vt 0.414524 0.177627
vt 0.558767 0.324236
vt 0.558767 0.397540
vt 0.558767 0.250931
vt 0.558767 0.177627
vt 0.306688 0.104323
vt 0.306688 0.031018
vt 0.306688 0.177627
vt 0.306688 0.250931
vt 0.053724 0.169489
vt 0.053724 0.187268
vt 0.053724 0.262939
vt 0.053724 0.280718
vt 0.090518 0.280718
vt 0.090518 0.262939
vt 0.090518 0.187268
vt 0.090518 0.169489
vt 0.197967 0.319584
vt 0.197967 0.413034
vt 0.197967 0.430813
vt 0.234761 0.430813
vt 0.234761 0.413034
vt 0.234761 0.319584
vt 0.053724 0.582099
vt 0.090518 0.582099
vt 0.090518 0.610553
vt 0.053724 0.610553
vt 0.778513 0.745200
vt 0.815307 0.745200
vt 0.815307 0.774382
vt 0.778513 0.774382
vt 0.778513 0.018203
vt 0.815307 0.018203
vt 0.815307 0.342666
vt 0.778513 0.342666
vt 0.645061 0.388733
vt 0.620970 0.374676
vt 0.595173 0.050099
vt 0.626450 0.068349
vt 0.888507 0.342666
vt 0.851714 0.342666
vt 0.851714 0.018203
vt 0.888507 0.018203
vt 0.620970 0.439197
vt 0.645061 0.425140
vt 0.626450 0.745524
vt 0.595173 0.763774
vt 0.778513 0.425140
vt 0.815307 0.425140
vt 0.505397 0.446762
vt 0.527182 0.464180
vt 0.505397 0.789051
vt 0.477114 0.766437
vt 0.954647 0.343804
vt 0.931745 0.359725
vt 0.924914 0.038874
vt 0.954647 0.018203
vt 0.681468 0.018203
vt 0.705560 0.032261
vt 0.731356 0.356837
vt 0.700079 0.338588
vt 0.317438 0.446762
vt 0.354232 0.446762
vt 0.354232 0.771920
vt 0.317438 0.771920
vt 0.199240 0.871619
vt 0.162446 0.871619
vt 0.162446 0.546460
vt 0.199240 0.546460
vt 0.705559 0.781613
vt 0.681468 0.795670
vt 0.700079 0.475286
vt 0.731356 0.457036
vt 0.924332 0.927326
vt 0.924332 0.890532
vt 0.947414 0.890532
vt 0.947414 0.927326
vt 0.924914 0.641867
vt 0.924914 0.605073
vt 0.947996 0.605073
vt 0.947996 0.641867
vt 0.815307 0.833871
vt 0.778513 0.833871
vt 0.778513 0.810789
vt 0.815307 0.810789
vt 0.090518 0.633635
vt 0.053724 0.633635
vt 0.102154 0.814285
vt 0.110212 0.814285
vt 0.110212 0.876973
vt 0.102154 0.876973
vt 0.354232 0.801102
vt 0.317438 0.801102
vt 0.661186 0.879621
vt 0.661186 0.842827
vt 0.690368 0.842827
vt 0.690368 0.879621
vt 0.390639 0.917770
vt 0.396848 0.917770
vt 0.396848 0.980459
vt 0.390639 0.980459
vt 0.028953 0.837366
vt 0.065747 0.837366
vt 0.065747 0.865821
vt 0.028953 0.865821
vt 0.306688 0.885052
vt 0.306688 0.848258
vt 0.335870 0.848258
vt 0.335870 0.885052
vt 0.815307 0.371120
vt 0.778513 0.371120
vt 0.475870 0.917770
vt 0.482079 0.917770
vt 0.482079 0.980459
vt 0.475870 0.980459
vt 0.815307 0.862325
vt 0.778513 0.862325
vt 0.102154 0.913380
vt 0.110418 0.913380
vt 0.110418 0.976068
vt 0.102154 0.976068
vt 0.028842 0.928518
vt 0.043777 0.928518
vt 0.054415 0.939156
vt 0.018203 0.939156
vt 0.877287 0.890420
vt 0.862352 0.890420
vt 0.851714 0.879782
vt 0.887925 0.879782
vt 0.916739 0.761830
vt 0.931674 0.761830
vt 0.942312 0.772468
vt 0.906100 0.772468
vt 0.793337 0.909370
vt 0.778401 0.909370
vt 0.767763 0.898732
vt 0.803975 0.898732
vt 0.018203 0.902228
vt 0.054415 0.902228
vt 0.043777 0.912866
vt 0.028842 0.912866
vt 0.887925 0.916711
vt 0.851714 0.916711
vt 0.862352 0.906073
vt 0.877287 0.906073
vt 0.906100 0.735540
vt 0.942312 0.735540
vt 0.931674 0.746178
vt 0.916739 0.746178
vt 0.803975 0.935661
vt 0.767763 0.935661
vt 0.778401 0.925022
vt 0.793337 0.925022
vt 0.916850 0.808875
vt 0.916850 0.831957
vt 0.906100 0.831957
vt 0.906100 0.808875
vt 0.306688 0.801102
vt 0.306688 0.771920
vt 0.101268 0.582099
vt 0.101268 0.610553
vt 0.317438 0.921459
vt 0.317438 0.944541
vt 0.306688 0.944541
vt 0.306688 0.921459
vt 0.767763 0.774382
vt 0.767763 0.745200
vt 0.767763 0.862325
vt 0.767763 0.833871
vt 0.767763 0.371120
vt 0.767763 0.342666
vt 0.778513 0.319584
vt 0.767763 0.319584
vt 0.306688 0.837509
vt 0.335870 0.837509
vt 0.028953 0.814285
vt 0.018203 0.837366
vt 0.018203 0.814285
vt 0.018203 0.865821
vt 0.661186 0.832077
vt 0.690368 0.832077
vt 0.101268 0.633635
vt 0.767763 0.810789
vt 0.924914 0.594323
vt 0.947996 0.594323
vt 0.924332 0.879782
vt 0.947414 0.879782
vt 0.713254 0.361599
vt 0.704841 0.356690
vt 0.704841 0.457184
vt 0.713254 0.452275
vt 0.613276 0.045338
vt 0.621689 0.050247
vt 0.621689 0.763627
vt 0.613276 0.768536
vt 0.699570 0.365722
vt 0.707984 0.370631
vt 0.712745 0.388733
vt 0.681468 0.370484
vt 0.707984 0.443242
vt 0.699570 0.448151
vt 0.681468 0.443390
vt 0.712745 0.425140
vt 0.626959 0.041215
vt 0.618546 0.036306
vt 0.613784 0.018203
vt 0.645061 0.036453
vt 0.618546 0.777568
vt 0.626959 0.772659
vt 0.645061 0.777420
vt 0.613784 0.795670
vt 0.934655 0.688731
vt 0.924914 0.688731
vt 0.924914 0.678274
vt 0.934655 0.678274
vt 0.595173 0.924390
vt 0.604914 0.924390
vt 0.604914 0.934847
vt 0.595173 0.934847
vt 0.245387 0.934847
vt 0.235647 0.934847
vt 0.235647 0.924389
vt 0.245387 0.924389
vt 0.549192 0.935011
vt 0.539452 0.935011
vt 0.539452 0.924553
vt 0.549192 0.924553
vt 0.661186 0.916028
vt 0.669450 0.916028
vt 0.669450 0.978716
vt 0.661186 0.978716
vt 0.924914 0.396132
vt 0.931123 0.396132
vt 0.931123 0.458821
vt 0.924914 0.458821
vt 0.939181 0.396132
vt 0.939181 0.458821
vt 0.975588 0.396132
vt 0.981797 0.396132
vt 0.981797 0.458821
vt 0.975588 0.458821
vt 0.924914 0.495228
vt 0.932972 0.495228
vt 0.932972 0.557916
vt 0.924914 0.557916
vt 0.116420 0.814285
vt 0.116420 0.876973
vt 0.705857 0.916028
vt 0.714121 0.916028
vt 0.714121 0.978716
vt 0.705857 0.978716
vt 0.939181 0.495228
vt 0.939181 0.557916
vt 0.162446 0.908026
vt 0.170710 0.908026
vt 0.170710 0.970714
vt 0.162446 0.970714
vt 0.433255 0.917770
vt 0.439463 0.917770
vt 0.439463 0.980459
vt 0.433255 0.980459
vt 0.545660 0.825458
vt 0.553718 0.825458
vt 0.553718 0.888146
vt 0.545660 0.888146
vt 0.539452 0.825458
vt 0.539452 0.888146
vt 0.044168 0.080117
vt 0.100074 0.080117
vt 0.100074 0.037040
vt 0.044168 0.037040
vt 0.031018 0.026907
vt 0.113224 0.026907
vt 0.051157 0.050511
vt 0.093086 0.050511
vt 0.100074 0.060350
vt 0.044168 0.060350
vt 0.624779 0.839066
vt 0.624779 0.880994
vt 0.614940 0.887983
vt 0.614940 0.832077
vt 0.503045 0.832446
vt 0.503045 0.874375
vt 0.496056 0.881363
vt 0.496056 0.825458
vt 0.390639 0.874375
vt 0.390639 0.832446
vt 0.397627 0.825458
vt 0.397627 0.881363
vt 0.051157 0.018203
vt 0.093086 0.018203
vt 0.465045 0.881363
vt 0.465045 0.825458
vt 0.428638 0.825458
vt 0.428638 0.881363
vt 0.595173 0.887983
vt 0.595173 0.832077
s 0
usemtl DroneMat
f 1/1/1 169/2/1 3/3/1
f 170/4/2 5/5/2 6/6/2
f 7/7/3 8/8/3 9/9/3
f 10/10/4 11/11/4 12/12/4
f 13/13/5 14/14/5 172/15/5
f 16/16/6 171/17/6 18/18/6
f 19/19/7 20/20/7 21/21/7
f 22/22/8 23/23/8 24/24/8
f 28/25/9 1/26/9 3/27/9 57/28/9
f 169/2/10 170/4/10 6/6/10 3/3/10
f 36/29/11 10/30/11 12/31/11 61/32/11
f 11/11/12 9/9/12 8/8/12 12/12/12
f 19/33/13 7/34/13 9/35/13 20/36/13
f 10/30/14 22/37/14 24/38/14 11/39/14
f 23/23/15 21/21/15 20/20/15 24/24/15
f 44/40/16 19/33/16 21/41/16 65/42/16
f 52/43/17 16/44/17 18/45/17 69/46/17
f 171/17/18 172/15/18 14/14/18 18/18/18
f 1/26/19 13/47/19 172/48/19 169/49/19
f 16/44/20 5/50/20 170/51/20 171/52/20
f 28/25/21 41/53/21 13/47/21 1/26/21
f 60/54/22 61/55/22 12/56/22 8/57/22
f 52/43/23 33/58/23 5/50/23 16/44/23
f 9/9/24 11/11/24 24/59/24 20/60/24
f 68/61/25 69/62/25 18/18/25 14/14/25
f 21/63/25 23/64/25 72/65/25 65/66/25
f 40/67/23 39/68/23 79/69/23 80/70/23
f 66/71/25 71/72/25 70/73/25 67/74/25
f 47/75/26 54/76/26 86/77/26 143/78/26
f 22/37/23 10/30/23 36/29/23 49/79/23
f 49/79/23 36/29/23 35/80/23 50/81/23
f 50/81/23 35/80/23 34/82/23 51/83/23
f 51/83/23 34/82/23 33/58/23 52/43/23
f 3/3/22 6/6/22 64/84/22 57/85/22
f 38/86/23 37/87/23 77/88/23 78/89/23
f 58/90/22 63/91/22 62/92/22 59/93/22
f 55/94/27 46/95/27 142/96/27 87/97/27
f 7/34/21 19/33/21 44/40/21 25/98/21
f 25/98/21 44/40/21 43/99/21 26/100/21
f 26/100/21 43/99/21 42/101/21 27/102/21
f 27/102/21 42/101/21 41/53/21 28/25/21
f 22/37/17 49/79/17 72/103/17 23/104/17
f 49/79/17 50/81/17 71/105/17 72/103/17
f 50/81/17 51/83/17 70/106/17 71/105/17
f 51/83/17 52/43/17 69/46/17 70/106/17
f 13/47/16 41/53/16 68/107/16 14/108/16
f 41/53/16 42/101/16 67/109/16 68/107/16
f 42/101/16 43/99/16 66/110/16 67/109/16
f 43/99/16 44/40/16 65/42/16 66/110/16
f 5/50/11 33/58/11 64/111/11 6/112/11
f 33/58/11 34/82/11 63/113/11 64/111/11
f 34/82/11 35/80/11 62/114/11 63/113/11
f 35/80/11 36/29/11 61/32/11 62/114/11
f 7/34/9 25/98/9 60/115/9 8/116/9
f 25/98/9 26/100/9 59/117/9 60/115/9
f 26/100/9 27/102/9 58/118/9 59/117/9
f 27/102/9 28/25/9 57/28/9 58/118/9
f 29/119/22 30/120/22 58/90/22 57/85/22
f 31/121/22 32/122/22 60/54/22 59/93/22
f 37/123/22 38/124/22 62/92/22 61/55/22
f 39/125/22 40/126/22 64/84/22 63/91/22
f 45/127/25 46/95/25 66/71/25 65/66/25
f 47/128/25 48/129/25 68/61/25 67/74/25
f 53/130/25 54/131/25 70/73/25 69/62/25
f 55/94/25 56/132/25 72/65/25 71/72/25
f 56/132/25 45/127/25 65/66/25 72/65/25
f 46/95/25 55/94/25 71/72/25 66/71/25
f 54/131/25 47/128/25 67/74/25 70/73/25
f 48/129/25 53/130/25 69/62/25 68/61/25
f 40/126/22 29/119/22 57/85/22 64/84/22
f 30/120/22 39/125/22 63/91/22 58/90/22
f 38/124/22 31/121/22 59/93/22 62/92/22
f 32/122/22 37/123/22 61/55/22 60/54/22
f 139/133/28 78/134/28 94/135/28 147/136/28
f 79/137/24 138/138/24 146/139/24 95/140/24
f 53/141/29 48/142/29 144/143/29 85/144/29
f 46/145/21 45/146/21 141/147/21 142/148/21
f 29/149/30 40/150/30 80/151/30 137/152/30
f 48/153/21 47/154/21 143/155/21 144/156/21
f 39/157/31 30/158/31 138/138/31 79/137/31
f 54/159/23 53/160/23 85/161/23 86/162/23
f 31/121/32 38/124/32 78/134/32 139/133/32
f 56/163/23 55/164/23 87/165/23 88/166/23
f 30/167/21 29/168/21 137/169/21 138/170/21
f 37/171/33 32/172/33 140/173/33 77/174/33
f 45/175/34 56/176/34 88/177/34 141/178/34
f 32/179/21 31/180/21 139/181/21 140/182/21
f 149/183/25 104/184/25 103/185/25 150/186/25
f 151/187/25 102/188/25 101/189/25 152/190/25
f 145/191/22 96/192/22 95/193/22 146/194/22
f 147/136/22 94/135/22 93/195/22 148/196/22
f 100/197/28 84/198/28 160/199/28 168/200/28
f 77/174/24 140/173/24 148/201/24 93/202/24
f 141/203/24 88/204/24 104/205/24 149/206/24
f 74/207/25 73/208/25 153/209/25 154/210/25
f 87/211/28 142/212/28 150/213/28 103/214/28
f 143/215/24 86/216/24 102/217/24 151/218/24
f 85/144/28 144/143/28 152/219/28 101/220/28
f 99/221/25 100/222/25 168/223/25 167/224/25
f 137/225/28 80/226/28 96/192/28 145/191/28
f 83/227/24 99/228/24 167/229/24 159/230/24
f 106/231/17 107/232/17 108/233/17 105/234/17
f 110/235/17 111/236/17 112/237/17 109/238/17
f 114/239/11 115/240/11 116/241/11 113/242/11
f 118/243/11 119/244/11 120/245/11 117/246/11
f 122/247/11 123/248/11 124/249/11 121/250/11
f 126/251/11 127/252/11 128/253/11 125/254/11
f 130/255/17 131/256/17 132/257/17 129/258/17
f 134/259/17 135/260/17 136/261/17 133/262/17
f 125/254/14 110/235/14 109/238/14 126/251/14
f 113/242/20 130/255/20 129/258/20 114/239/20
f 131/256/14 116/241/14 115/240/14 132/257/14
f 107/232/20 124/249/20 123/248/20 108/233/20
f 117/246/20 134/259/20 133/262/20 118/243/20
f 135/260/14 120/245/14 119/244/14 136/261/14
f 121/250/14 106/231/14 105/234/14 122/247/14
f 127/252/20 112/237/20 111/236/20 128/253/20
f 78/263/25 77/264/25 105/265/25 108/266/25
f 107/232/23 106/231/23 121/250/23 124/249/23
f 77/174/24 93/202/24 122/267/24 105/268/24
f 94/135/28 78/134/28 108/269/28 123/270/28
f 80/271/25 79/272/25 109/273/25 112/274/25
f 111/236/23 110/235/23 125/254/23 128/253/23
f 79/137/24 95/140/24 126/275/24 109/276/24
f 96/192/28 80/226/28 112/277/28 127/278/28
f 115/240/23 114/239/23 129/258/23 132/257/23
f 85/144/28 101/220/28 130/279/28 113/280/28
f 86/281/22 85/144/22 113/280/22 116/282/22
f 102/217/24 86/216/24 116/283/24 131/284/24
f 88/285/22 87/211/22 117/286/22 120/287/22
f 119/244/23 118/243/23 133/262/23 136/261/23
f 87/211/28 103/214/28 134/288/28 117/286/28
f 104/205/24 88/204/24 120/289/24 135/290/24
f 93/195/22 94/135/22 123/270/22 122/291/22
f 95/193/22 96/192/22 127/278/22 126/292/22
f 101/189/25 102/188/25 131/293/25 130/294/25
f 103/185/25 104/184/25 135/295/25 134/296/25
f 73/297/21 74/298/21 138/170/21 137/169/21
f 75/299/21 76/300/21 140/182/21 139/181/21
f 81/301/21 82/302/21 142/148/21 141/147/21
f 83/303/21 84/304/21 144/156/21 143/155/21
f 90/305/21 89/306/21 145/307/21 146/308/21
f 92/309/21 91/310/21 147/311/21 148/312/21
f 98/313/21 97/314/21 149/315/21 150/316/21
f 100/317/21 99/318/21 151/319/21 152/320/21
f 74/298/21 90/305/21 146/308/21 138/170/21
f 91/310/21 75/299/21 139/181/21 147/311/21
f 89/306/21 73/297/21 137/169/21 145/307/21
f 76/300/21 92/309/21 148/312/21 140/182/21
f 97/314/21 81/301/21 141/147/21 149/315/21
f 82/302/21 98/313/21 150/316/21 142/148/21
f 99/318/21 83/303/21 143/155/21 151/319/21
f 84/304/21 100/317/21 152/320/21 144/156/21
f 154/321/21 153/322/21 161/323/21 162/324/21
f 156/325/21 155/326/21 163/327/21 164/328/21
f 158/329/21 157/330/21 165/331/21 166/332/21
f 160/333/21 159/334/21 167/335/21 168/336/21
f 90/337/24 74/338/24 154/339/24 162/340/24
f 76/341/25 75/342/25 155/343/25 156/344/25
f 75/342/28 91/345/28 163/346/28 155/343/28
f 82/347/22 81/348/22 157/349/22 158/350/22
f 73/351/28 89/352/28 161/353/28 153/354/28
f 84/198/22 83/355/22 159/356/22 160/199/22
f 92/357/24 76/358/24 156/359/24 164/360/24
f 89/352/22 90/361/22 162/362/22 161/353/22
f 81/363/24 97/364/24 165/365/24 157/366/24
f 91/367/22 92/368/22 164/369/22 163/370/22
f 98/371/28 82/372/28 158/373/28 166/374/28
f 97/375/25 98/371/25 166/374/25 165/376/25
f 2/377/28 4/378/28 170/4/28 169/2/28
f 17/379/28 15/380/28 172/381/28 171/382/28
f 15/380/28 2/377/28 169/2/28 172/381/28
f 4/378/28 17/379/28 171/382/28 170/4/28
f 174/383/10 175/384/10 176/385/10 173/386/10
f 178/387/18 179/388/18 180/389/18 177/390/18
f 179/391/19 174/392/19 173/393/19 180/394/19
f 175/395/20 178/396/20 177/397/20 176/398/20
f 4/378/22 2/377/22 173/386/22 176/385/22
f 179/399/28 178/400/28 175/384/28 174/383/28
f 2/401/21 15/402/21 180/394/21 173/393/21
f 17/403/23 4/404/23 176/398/23 177/397/23
f 15/405/25 17/406/25 177/390/25 180/389/25
